{"title":"Paradise Canyon (1935) DVDRip.x264-PsiX","uid":8599499,"size":763906507,"categoryP":"video","categoryS":"movies","magnet":"?xt=urn:btih:206f727c798b7bb0f81607f48199fbbd7eabf515&amp;dn=Paradise+Canyon+%281935%29+DVDRip.x264-PsiX&amp;tr=udp%3A%2F%2Ftracker.openbittorrent.com%3A80&amp;tr=udp%3A%2F%2Fopen.demonii.com%3A1337&amp;tr=udp%3A%2F%2Ftracker.coppersurfer.tk%3A6969&amp;tr=udp%3A%2F%2Fexodus.desync.com%3A6969","seeders":0,"leechers":2,"uploader":"sakhslitsa","files":2,"time":1371847828,"description":"Paradise Canyon (1935) DVDRip.x264-PsiX\n\n\n\nParadise Canyon (1935) DVDRip.x264-PsiX.mkv\nFormat : Matroska\nFormat version : Version 2\nFile size : 728 MiB\nDuration : 51mn 4s\nOverall bit rate : 1 994 Kbps\nEncoded date : UTC 2013-05-30 23:05:58\nWriting application : mkvmerge v6.1.0 ('Old Devil') built on Mar 2 2013 14:32:37\nWriting library : libebml v1.3.0 + libmatroska v1.4.0\n\nVideo\nID : 1\nFormat : AVC\nFormat/Info : Advanced Video Codec\nFormat profile : &lt;a class=&quot;__cf_email__&quot; href=&quot;/cdn-cgi/l/email-protection&quot; data-cfemail=&quot;6f270608072f235b415e&quot;&gt;[email&amp;#160;protected]&lt;/a&gt;&lt;script cf-hash='f9e31' type=&quot;text/javascript&quot;&gt;\n/* &lt;![CDATA[ */!function(){try{var t=&quot;currentScript&quot;in document?document.currentScript:function(){for(var t=document.getElementsByTagName(&quot;script&quot;),e=t.length;e--;)if(t[e].getAttribute(&quot;cf-hash&quot;))return t[e]}();if(t&amp;&amp;t.previousSibling){var e,r,n,i,c=t.previousSibling,a=c.getAttribute(&quot;data-cfemail&quot;);if(a){for(e=&quot;&quot;,r=parseInt(a.substr(0,2),16),n=2;a.length-n;n+=2)i=parseInt(a.substr(n,2),16)^r,e+=String.fromCharCode(i);e=document.createTextNode(e),c.parentNode.replaceChild(e,c)}}}catch(u){}}();/* ]]&gt; */&lt;/script&gt;\nFormat settings, CABAC : Yes\nFormat settings, ReFrames : 5 frames\nCodec ID : V_MPEG4/ISO/AVC\nDuration : 51mn 4s\nBit rate : 1 800 Kbps\nWidth : 640 pixels\nHeight : 480 pixels\nDisplay aspect ratio : 4:3\nFrame rate mode : Constant\nFrame rate : 25.000 fps\nColor space : YUV\nChroma subsampling : 4:2:0\nBit depth : 8 bits\nScan type : Progressive\nBits/(Pixel*Frame) : 0.234\nStream size : 644 MiB (88%)\nWriting library : x264 core 130 r2273 b3065e6\n\nAudio\nID : 2\nFormat : AC-3\nFormat/Info : Audio Coding 3\nMode extension : CM (complete main)\nFormat settings, Endianness : Big\nCodec ID : A_AC3\nDuration : 51mn 4s\nBit rate mode : Constant\nBit rate : 192 Kbps\nChannel(s) : 2 channels\nChannel positions : Front: L R\nSampling rate : 48.0 KHz\nBit depth : 16 bits\nCompression mode : Lossy\nStream size : 70.1 MiB (10%)\nDefault : Yes\nForced : No\n\nMenu\n00:00:00.000 : en:Chapter 01\n00:11:22.080 : en:Chapter 02\n00:19:45.520 : en:Chapter 03\n00:28:14.000 : en:Chapter 04\n00:39:14.240 : en:Chapter 05\n\n\n\nEncoded............: PsiX\nSource.............: DVD5\nSubs..........No\n\n\n","torrent":{"xt":"urn:btih:206f727c798b7bb0f81607f48199fbbd7eabf515","amp;dn":"Paradise+Canyon+%281935%29+DVDRip.x264-PsiX","amp;tr":["udp%3A%2F%2Ftracker.openbittorrent.com%3A80","udp%3A%2F%2Fopen.demonii.com%3A1337","udp%3A%2F%2Ftracker.coppersurfer.tk%3A6969","udp%3A%2F%2Fexodus.desync.com%3A6969"],"infoHash":"206f727c798b7bb0f81607f48199fbbd7eabf515","infoHashBuffer":{"type":"Buffer","data":[32,111,114,124,121,139,123,176,248,22,7,244,129,153,251,189,126,171,245,21]},"announce":[],"urlList":[]}}